<?xml version="1.0" encoding="utf-8"?>
<!-- Generator: Adobe Illustrator 25.2.3, SVG Export Plug-In . SVG Version: 6.00 Build 0)  -->
<svg version="1.1" id="Layer_1" xmlns="http://www.w3.org/2000/svg" xmlns:xlink="http://www.w3.org/1999/xlink" x="0px" y="0px"
	 viewBox="0 0 668 299" style="enable-background:new 0 0 668 299;" xml:space="preserve">
<style type="text/css">
	.st0{fill:none;stroke:#3A53A4;stroke-width:2.834645e-02;}
</style>
<g>
	<path class="st0" d="M319.4,9.4c-0.2,0-0.4,0-0.6,0h-20.2c-2,0.1-3.6,1.8-3.6,3.8v18c0,2.1-1.7,3.8-3.8,3.8h-27
		c-2.1,0-3.8-1.7-3.8-3.8v-18c0-2-1.6-3.7-3.6-3.8h-173c-2,0.1-3.6,1.8-3.6,3.8v18c0,2.1-1.7,3.8-3.8,3.8h-27
		c-2.1,0-3.8-1.7-3.8-3.8v-18c0-2-1.6-3.7-3.6-3.8H19.8c-0.2,0-0.4,0-0.6,0c-5.8,0.3-10.3,5.1-10.3,11v258.3c0,6.1,4.9,11,11,11H319
		c6.1,0,11-4.9,11-11V20.2C329.7,14.4,325.2,9.6,319.4,9.4z M61.2,267.2c-1.7,0-3.1-1.4-3.1-3.1c0-1.7,1.4-3.1,3.1-3.1
		s3.1,1.4,3.1,3.1C64.3,265.9,63,267.2,61.2,267.2z M61.2,132.2c-1.7,0-3.1-1.4-3.1-3.1s1.4-3.1,3.1-3.1s3.1,1.4,3.1,3.1
		S63,132.2,61.2,132.2z M115.2,213.2c-1.7,0-3.1-1.4-3.1-3.1s1.4-3.1,3.1-3.1s3.1,1.4,3.1,3.1S117,213.2,115.2,213.2z M115.2,67.4
		c-3.7,0-6.8-3-6.8-6.8s3-6.8,6.8-6.8s6.8,3,6.8,6.8S119,67.4,115.2,67.4z M184.3,71.1c0,1.7-1.3,3-3,3h-21c-1.7,0-3-1.3-3-3V55
		c0-1.6,1.3-3,3-3h21c1.7,0,3,1.3,3,3V71.1z M223.2,267.2c-1.7,0-3.1-1.4-3.1-3.1c0-1.7,1.4-3.1,3.1-3.1s3.1,1.4,3.1,3.1
		C226.3,265.9,225,267.2,223.2,267.2z M223.2,213.2c-1.7,0-3.1-1.4-3.1-3.1s1.4-3.1,3.1-3.1s3.1,1.4,3.1,3.1S225,213.2,223.2,213.2z
		 M277.2,71.4c-1.7,0-3.1-1.4-3.1-3.1s1.4-3.1,3.1-3.1s3.1,1.4,3.1,3.1C280.4,70,279,71.4,277.2,71.4z"/>
	<g>
		<path class="st0" d="M648.4,9.3c-0.2,0-0.4,0-0.6,0h-75.1c-0.1,0-0.1,0-0.2,0c-2,0.1-3.6,1.8-3.6,3.8V31c0,2-1.6,3.7-3.6,3.8
			c-0.1,0-0.1,0-0.2,0h-26.9c-2.1,0-3.8-1.7-3.8-3.8V13.1c0-2.1-1.7-3.8-3.8-3.8H410.8c-2.1,0-3.8,1.7-3.8,3.8V31
			c0,2-1.6,3.7-3.6,3.8c-0.1,0-0.1,0-0.2,0h-26.9c-2.1,0-3.8-1.7-3.8-3.8V13.1c0-2-1.6-3.7-3.6-3.8H349c-0.2,0-0.4,0-0.6,0
			c-5.8,0.3-10.4,5.1-10.4,11v258.4c0,6.1,4.9,11,11,11h299.1c6.1,0,11-4.9,11-11V20.2C658.7,14.4,654.1,9.6,648.4,9.3z M390.2,71.4
			c-1.7,0-3.1-1.4-3.1-3.1s1.4-3.1,3.1-3.1s3.1,1.4,3.1,3.1S392,71.4,390.2,71.4z M444.3,267.2c-1.7,0-3.1-1.4-3.1-3.1
			s1.4-3.1,3.1-3.1s3.1,1.4,3.1,3.1C447.4,265.8,446,267.2,444.3,267.2z M441.1,210.1c0-1.7,1.4-3.1,3.1-3.1s3.1,1.4,3.1,3.1
			c0,1.7-1.4,3.1-3.1,3.1C442.5,213.2,441.1,211.8,441.1,210.1z M442.8,68.8c-3.7,0-6.8-3-6.8-6.8c0-3.7,3-6.8,6.8-6.8
			c3.7,0,6.8,3,6.8,6.8C449.6,65.8,446.6,68.8,442.8,68.8z M552.2,213.2c-1.7,0-3.1-1.4-3.1-3.1c0-1.7,1.4-3.1,3.1-3.1
			s3.1,1.4,3.1,3.1S554,213.2,552.2,213.2z M606.2,71.9c1.7,0,3.1,1.4,3.1,3.1s-1.4,3.1-3.1,3.1s-3.1-1.4-3.1-3.1
			C603.1,73.3,604.5,71.9,606.2,71.9z M606.3,267.2c-1.7,0-3.1-1.4-3.1-3.1s1.4-3.1,3.1-3.1s3.1,1.4,3.1,3.1
			C609.4,265.8,608,267.2,606.3,267.2z"/>
	</g>
	<path class="st0" d="M319.4,9.4c-0.2,0-0.4,0-0.6,0h-20.2c-2,0.1-3.6,1.8-3.6,3.8v18c0,2.1-1.7,3.8-3.8,3.8h-27
		c-2.1,0-3.8-1.7-3.8-3.8v-18c0-2-1.6-3.7-3.6-3.8h-173c-2,0.1-3.6,1.8-3.6,3.8v18c0,2.1-1.7,3.8-3.8,3.8h-27
		c-2.1,0-3.8-1.7-3.8-3.8v-18c0-2-1.6-3.7-3.6-3.8H19.8c-0.2,0-0.4,0-0.6,0c-5.8,0.3-10.3,5.1-10.3,11v258.3c0,6.1,4.9,11,11,11H319
		c6.1,0,11-4.9,11-11V20.2C329.7,14.4,325.2,9.6,319.4,9.4z M61.2,267.2c-1.7,0-3.1-1.4-3.1-3.1c0-1.7,1.4-3.1,3.1-3.1
		s3.1,1.4,3.1,3.1C64.3,265.9,63,267.2,61.2,267.2z M61.2,132.2c-1.7,0-3.1-1.4-3.1-3.1s1.4-3.1,3.1-3.1s3.1,1.4,3.1,3.1
		S63,132.2,61.2,132.2z M115.2,213.2c-1.7,0-3.1-1.4-3.1-3.1s1.4-3.1,3.1-3.1s3.1,1.4,3.1,3.1S117,213.2,115.2,213.2z M115.2,67.4
		c-3.7,0-6.8-3-6.8-6.8s3-6.8,6.8-6.8s6.8,3,6.8,6.8S119,67.4,115.2,67.4z M184.3,71.1c0,1.7-1.3,3-3,3h-21c-1.7,0-3-1.3-3-3V55
		c0-1.6,1.3-3,3-3h21c1.7,0,3,1.3,3,3V71.1z M223.2,267.2c-1.7,0-3.1-1.4-3.1-3.1c0-1.7,1.4-3.1,3.1-3.1s3.1,1.4,3.1,3.1
		C226.3,265.9,225,267.2,223.2,267.2z M223.2,213.2c-1.7,0-3.1-1.4-3.1-3.1s1.4-3.1,3.1-3.1s3.1,1.4,3.1,3.1S225,213.2,223.2,213.2z
		 M277.2,71.4c-1.7,0-3.1-1.4-3.1-3.1s1.4-3.1,3.1-3.1s3.1,1.4,3.1,3.1C280.4,70,279,71.4,277.2,71.4z"/>
	<path class="st0" d="M648.4,9.3c-0.2,0-0.4,0-0.6,0h-75.1c-0.1,0-0.1,0-0.2,0c-2,0.1-3.6,1.8-3.6,3.8V31c0,2-1.6,3.7-3.6,3.8
		c-0.1,0-0.1,0-0.2,0h-26.9c-2.1,0-3.8-1.7-3.8-3.8V13.1c0-2.1-1.7-3.8-3.8-3.8H410.8c-2.1,0-3.8,1.7-3.8,3.8V31
		c0,2-1.6,3.7-3.6,3.8c-0.1,0-0.1,0-0.2,0h-26.9c-2.1,0-3.8-1.7-3.8-3.8V13.1c0-2-1.6-3.7-3.6-3.8H349c-0.2,0-0.4,0-0.6,0
		c-5.8,0.3-10.4,5.1-10.4,11v258.4c0,6.1,4.9,11,11,11h299.1c6.1,0,11-4.9,11-11V20.2C658.7,14.4,654.1,9.6,648.4,9.3z M390.2,71.4
		c-1.7,0-3.1-1.4-3.1-3.1s1.4-3.1,3.1-3.1s3.1,1.4,3.1,3.1S392,71.4,390.2,71.4z M444.3,267.2c-1.7,0-3.1-1.4-3.1-3.1
		s1.4-3.1,3.1-3.1s3.1,1.4,3.1,3.1C447.4,265.8,446,267.2,444.3,267.2z M441.1,210.1c0-1.7,1.4-3.1,3.1-3.1s3.1,1.4,3.1,3.1
		c0,1.7-1.4,3.1-3.1,3.1C442.5,213.2,441.1,211.8,441.1,210.1z M442.8,68.8c-3.7,0-6.8-3-6.8-6.8c0-3.7,3-6.8,6.8-6.8
		c3.7,0,6.8,3,6.8,6.8C449.6,65.8,446.6,68.8,442.8,68.8z M552.2,213.2c-1.7,0-3.1-1.4-3.1-3.1c0-1.7,1.4-3.1,3.1-3.1
		s3.1,1.4,3.1,3.1S554,213.2,552.2,213.2z M606.2,71.9c1.7,0,3.1,1.4,3.1,3.1s-1.4,3.1-3.1,3.1s-3.1-1.4-3.1-3.1
		C603.1,73.3,604.5,71.9,606.2,71.9z M606.3,267.2c-1.7,0-3.1-1.4-3.1-3.1s1.4-3.1,3.1-3.1s3.1,1.4,3.1,3.1
		C609.4,265.8,608,267.2,606.3,267.2z"/>
</g>
</svg>
