<?xml version="1.0" encoding="utf-8"?>
<!-- Generator: Adobe Illustrator 25.2.3, SVG Export Plug-In . SVG Version: 6.00 Build 0)  -->
<svg version="1.1" id="Layer_1" xmlns="http://www.w3.org/2000/svg" xmlns:xlink="http://www.w3.org/1999/xlink" x="0px" y="0px"
	 viewBox="0 0 1025.3 585.8" style="enable-background:new 0 0 1025.3 585.8;" xml:space="preserve">
<style type="text/css">
	.st0{fill:none;stroke:#3A53A4;stroke-width:2.834645e-02;}
</style>
<g>
	<path class="st0" d="M762,305h180.2v-5.2c0-2-1.6-3.7-3.6-3.8h-173c-2,0.1-3.6,1.8-3.6,3.8V305z"/>
	<path class="st0" d="M685,314.5v250.9c0,10.2,8.3,18.5,18.5,18.5h299.1c10.2,0,18.5-8.3,18.5-18.5V314.5c0-5.9-2.7-11.1-7-14.5
		c-3.2-2.5-7.2-4-11.5-4h-22.2c-2,0.1-3.6,1.8-3.6,3.8v5.2h25.9c2.8,0,4.7,1.1,5.9,2.1c2.3,1.8,3.6,4.5,3.6,7.4v250.9
		c0,5.2-4.3,9.5-9.5,9.5H703.6c-5.2,0-9.5-4.3-9.5-9.5V314.5c0-2.6,1-5,2.9-6.8c1.8-1.7,4.1-2.7,6.6-2.7h23.8v-5.2
		c0-2-1.6-3.7-3.6-3.8h-20.2c-5,0-9.5,2-12.9,5.2C687.2,304.5,685,309.3,685,314.5z"/>
</g>
<g>
	<path class="st0" d="M817,12.8h127.4V7.6c0-2.1-1.7-3.8-3.8-3.8H820.9c-2.1,0-3.8,1.7-3.8,3.8v5.2H817z"/>
	<path class="st0" d="M685,22.3v250.9c0,10.2,8.3,18.5,18.5,18.5h299.1c10.2,0,18.5-8.3,18.5-18.5V22.3c0-5.4-2.3-10.3-6.1-13.7
		c-3.3-3-7.6-4.8-12.4-4.8h-19.9c-2,0.1-3.6,1.8-3.6,3.8v5.2h23.6c2.4,0,4.6,0.9,6.4,2.5c2,1.8,3.1,4.3,3.1,7v250.9
		c0,5.2-4.3,9.5-9.5,9.5H703.5c-5.2,0-9.5-4.3-9.5-9.5V22.3c0-5.2,4.3-9.5,9.5-9.5h79V7.6c0-2-1.6-3.7-3.6-3.8c-0.1,0-0.1,0-0.2,0
		h-75.2C693.3,3.8,685,12.1,685,22.3z"/>
</g>
<g>
	<rect x="358.1" y="23" class="st0" width="39.1" height="39.1"/>
	<rect x="412.1" y="23" class="st0" width="39.1" height="39.1"/>
	<rect x="466.1" y="23" class="st0" width="39.1" height="39.1"/>
	<rect x="520.1" y="23" class="st0" width="39.1" height="39.1"/>
	<rect x="574.1" y="23" class="st0" width="39.1" height="39.1"/>
	<rect x="628.1" y="23" class="st0" width="39.1" height="39.1"/>
	<rect x="358.1" y="77" class="st0" width="39.1" height="39.1"/>
	<rect x="412.1" y="77" class="st0" width="39.1" height="39.1"/>
	<rect x="466.1" y="77" class="st0" width="39.1" height="39.1"/>
	<rect x="520.1" y="77" class="st0" width="39.1" height="39.1"/>
	<rect x="574.1" y="77" class="st0" width="39.1" height="39.1"/>
	<rect x="628.1" y="77" class="st0" width="39.1" height="39.1"/>
	<rect x="358.1" y="131" class="st0" width="39.1" height="39.1"/>
	<rect x="412.1" y="131" class="st0" width="39.1" height="39.1"/>
	<rect x="466.1" y="131" class="st0" width="39.1" height="39.1"/>
	<rect x="520.1" y="131" class="st0" width="39.1" height="39.1"/>
	<rect x="574.1" y="131" class="st0" width="39.1" height="39.1"/>
	<rect x="628.1" y="131" class="st0" width="39.1" height="39.1"/>
	<rect x="358.1" y="185" class="st0" width="39.1" height="39.1"/>
	<rect x="412.1" y="185" class="st0" width="39.1" height="39.1"/>
	<rect x="466.1" y="185" class="st0" width="39.1" height="39.1"/>
	<circle class="st0" cx="458.7" cy="204.6" r="4.5"/>
	<rect x="520.1" y="185" class="st0" width="39.1" height="39.1"/>
	<rect x="574.1" y="185" class="st0" width="39.1" height="39.1"/>
	<rect x="628.1" y="185" class="st0" width="39.1" height="39.1"/>
	<rect x="358.1" y="239" class="st0" width="39.1" height="39.1"/>
	<rect x="412.1" y="239" class="st0" width="39.1" height="39.1"/>
	<rect x="466.1" y="239" class="st0" width="39.1" height="39.1"/>
	<rect x="520.1" y="239" class="st0" width="39.1" height="39.1"/>
	<rect x="574.1" y="239" class="st0" width="39.1" height="39.1"/>
	<rect x="628.1" y="239" class="st0" width="39.1" height="39.1"/>
	<g>
		<path class="st0" d="M680.8,22.3v250.9c0,10.2-8.3,18.5-18.5,18.5H363.1c-10.2,0-18.5-8.3-18.5-18.5V22.3
			c0-10.2,8.3-18.5,18.5-18.5h299.1C672.5,3.8,680.8,12.1,680.8,22.3z"/>
		<circle class="st0" cx="620.7" cy="258.6" r="4.5"/>
		<circle class="st0" cx="620.7" cy="123.6" r="4.5"/>
		<circle class="st0" cx="458.7" cy="258.6" r="4.5"/>
	</g>
	<circle class="st0" cx="404.7" cy="62.8" r="4.5"/>
	<circle class="st0" cx="566.7" cy="204.6" r="4.5"/>
</g>
<g>
	<path class="st0" d="M344.6,314.5v250.9c0,10.2,8.3,18.5,18.5,18.5h299.1c10.2,0,18.5-8.3,18.5-18.5V314.5c0-5.2-2.2-9.9-5.6-13.3
		c-3.3-3.2-7.9-5.2-12.9-5.2H642c-2,0.1-3.6,1.8-3.6,3.8v18c0,2.1-1.7,3.8-3.8,3.8h-27c-2.1,0-3.8-1.7-3.8-3.8v-18
		c0-2-1.6-3.7-3.6-3.8h-173c-2,0.1-3.6,1.8-3.6,3.8v18c0,2.1-1.7,3.8-3.8,3.8h-27c-2.1,0-3.8-1.7-3.8-3.8v-18c0-2-1.6-3.7-3.6-3.8
		h-22.3c-4.4,0-8.4,1.5-11.5,4C347.4,303.4,344.6,308.6,344.6,314.5z"/>
	<circle class="st0" cx="620.7" cy="355" r="3.1"/>
	<circle class="st0" cx="404.7" cy="415.8" r="3.1"/>
	<circle class="st0" cx="404.7" cy="550.8" r="3.1"/>
	<circle class="st0" cx="458.7" cy="496.8" r="3.1"/>
	<circle class="st0" cx="566.7" cy="496.8" r="3.1"/>
	<circle class="st0" cx="566.7" cy="550.8" r="3.1"/>
	<circle class="st0" cx="458.7" cy="347.4" r="6.8"/>
	<path class="st0" d="M503.8,360.8h21c1.6,0,3-1.3,3-3v-16.1c0-1.6-1.3-3-3-3h-21c-1.6,0-3,1.3-3,3v16.1
		C500.8,359.5,502.1,360.8,503.8,360.8z"/>
</g>
<g>
	<rect x="17.7" y="23" class="st0" width="39.1" height="39.1"/>
	<rect x="71.7" y="23" class="st0" width="39.1" height="39.1"/>
	<rect x="125.7" y="23" class="st0" width="39.1" height="39.1"/>
	<rect x="179.7" y="23" class="st0" width="39.1" height="39.1"/>
	<rect x="233.7" y="23" class="st0" width="39.1" height="39.1"/>
	<rect x="287.7" y="23" class="st0" width="39.1" height="39.1"/>
	<rect x="17.7" y="77" class="st0" width="39.1" height="39.1"/>
	<rect x="71.7" y="77" class="st0" width="39.1" height="39.1"/>
	<rect x="125.7" y="77" class="st0" width="39.1" height="39.1"/>
	<rect x="179.7" y="77" class="st0" width="39.1" height="39.1"/>
	<rect x="233.7" y="77" class="st0" width="39.1" height="39.1"/>
	<rect x="287.7" y="77" class="st0" width="39.1" height="39.1"/>
	<rect x="17.7" y="131" class="st0" width="39.1" height="39.1"/>
	<rect x="71.7" y="131" class="st0" width="39.1" height="39.1"/>
	<rect x="125.7" y="131" class="st0" width="39.1" height="39.1"/>
	<rect x="179.7" y="131" class="st0" width="39.1" height="39.1"/>
	<rect x="233.7" y="131" class="st0" width="39.1" height="39.1"/>
	<rect x="287.7" y="131" class="st0" width="39.1" height="39.1"/>
	<rect x="17.7" y="185" class="st0" width="39.1" height="39.1"/>
	<rect x="71.7" y="185" class="st0" width="39.1" height="39.1"/>
	<rect x="125.7" y="185" class="st0" width="39.1" height="39.1"/>
	<rect x="179.7" y="185" class="st0" width="39.1" height="39.1"/>
	<rect x="233.7" y="185" class="st0" width="39.1" height="39.1"/>
	<rect x="287.7" y="185" class="st0" width="39.1" height="39.1"/>
	<rect x="17.7" y="239" class="st0" width="39.1" height="39.1"/>
	<rect x="71.7" y="239" class="st0" width="39.1" height="39.1"/>
	<rect x="125.7" y="239" class="st0" width="39.1" height="39.1"/>
	<rect x="179.7" y="239" class="st0" width="39.1" height="39.1"/>
	<rect x="233.7" y="239" class="st0" width="39.1" height="39.1"/>
	<rect x="287.7" y="239" class="st0" width="39.1" height="39.1"/>
	<path class="st0" d="M340.3,22.3v250.9c0,10.2-8.3,18.5-18.5,18.5H22.7c-10.2,0-18.5-8.3-18.5-18.5V22.3c0-10.2,8.3-18.5,18.5-18.5
		h299.1C332,3.8,340.3,12.1,340.3,22.3z"/>
	<circle class="st0" cx="64.3" cy="69.6" r="4.5"/>
	<circle class="st0" cx="64.2" cy="258.6" r="4.5"/>
	<circle class="st0" cx="118.3" cy="204.6" r="4.5"/>
	<circle class="st0" cx="226.3" cy="204.6" r="4.5"/>
	<circle class="st0" cx="226.2" cy="258.6" r="4.5"/>
	<circle class="st0" cx="280.3" cy="62.8" r="4.5"/>
</g>
<g>
	<circle class="st0" cx="280.3" cy="361.8" r="3.1"/>
	<circle class="st0" cx="64.3" cy="355" r="3.1"/>
	<circle class="st0" cx="116.9" cy="348.8" r="6.8"/>
	<circle class="st0" cx="118.3" cy="550.8" r="3.1"/>
	<circle class="st0" cx="118.3" cy="496.8" r="3.1"/>
	<circle class="st0" cx="226.3" cy="496.8" r="3.1"/>
	<circle class="st0" cx="280.3" cy="550.8" r="3.1"/>
	<path class="st0" d="M84.7,296c-2.1,0-3.8,1.7-3.8,3.8v17.9c0,2-1.6,3.7-3.6,3.8c-0.1,0-0.1,0-0.2,0h-27c-2.1,0-3.8-1.7-3.8-3.8
		v-17.9c0-2-1.6-3.7-3.6-3.8h-20c-4.8,0-9.2,1.8-12.4,4.8c-3.7,3.4-6.1,8.3-6.1,13.7v250.9c0,10.2,8.3,18.5,18.5,18.5h299.1
		c10.2,0,18.5-8.3,18.5-18.5V314.5c0-10.2-8.3-18.5-18.5-18.5h-75.1c-0.1,0-0.1,0-0.2,0c-2,0.1-3.6,1.8-3.6,3.8v17.9
		c0,2-1.6,3.7-3.6,3.8c-0.1,0-0.1,0-0.2,0h-27c-2.1,0-3.8-1.7-3.8-3.8v-17.9c0-2.1-1.7-3.8-3.8-3.8H84.7z"/>
</g>
</svg>
